{"title":"Secret Smile S01","uid":10729661,"size":1031005234,"categoryP":"video","categoryS":"tv_shows","magnet":"?xt=urn:btih:1c583e664a171c9b1d9e1e710fe1fba569078507&amp;dn=Secret+Smile+S01&amp;tr=udp%3A%2F%2Ftracker.openbittorrent.com%3A80&amp;tr=udp%3A%2F%2Fopen.demonii.com%3A1337&amp;tr=udp%3A%2F%2Ftracker.coppersurfer.tk%3A6969&amp;tr=udp%3A%2F%2Fexodus.desync.com%3A6969","seeders":7,"leechers":1,"uploader":"RedBaron58","files":2,"time":1407611947,"description":"Secret Smile (2005) - Thriller Drama x264 mp4  \n &lt;a href=&quot;\nhttp://www.imdb.com/title/tt0462520/&quot; rel=&quot;nofollow&quot; target=&quot;_NEW&quot;&gt;\nhttp://www.imdb.com/title/tt0462520/&lt;/a&gt;\n\nTrailer:\n\n\nThank you for your kind comments and thumbs ups on my other torrents, your feedback is welcome.\n\n\nAbout the Series:\nCharming Brendan Block (David Tennant) dates Miranda Cotton and gets seriously committed. But she dumps him, \nclaiming he invaded her privacy. A few weeks later, Brendan gets engaged to Miranda's sister and is welcomed \nas ideal son-in-law by everyone else. \nFrom then on, nasty things keep happening to her loved-ones.\n\n\nI hope you enjoy.\n\n\nTechnical: (Both episodes encoded to the same settings)\n\nGeneral\nComplete name                            : H:Secret Smile S01Secret Smile S01E01 x264 RB58.mp4\nFormat                                   : MPEG-4\nFormat profile                           : Base Media / Version 2\nCodec ID                                 : mp42\nFile size                                : 493 MiB\nDuration                                 : 1h 8mn\nOverall bit rate mode                    : Variable\nOverall bit rate                         : 1 000 Kbps\nEncoded date                             : UTC 2014-07-30 18:56:28\nTagged date                              : UTC 2014-07-30 19:13:30\nWriting application                      : HandBrake 0.9.8 2012071700\n\nVideo\nID                                       : 1\nFormat                                   : AVC\nFormat/Info                              : Advanced Video Codec\nFormat profile                           : &lt;a class=&quot;__cf_email__&quot; href=&quot;/cdn-cgi/l/email-protection&quot; data-cfemail=&quot;b5f8d4dcdbf5f9869b85&quot;&gt;[email&amp;#160;protected]&lt;/a&gt;&lt;script cf-hash='f9e31' type=&quot;text/javascript&quot;&gt;\n/* &lt;![CDATA[ */!function(){try{var t=&quot;currentScript&quot;in document?document.currentScript:function(){for(var t=document.getElementsByTagName(&quot;script&quot;),e=t.length;e--;)if(t[e].getAttribute(&quot;cf-hash&quot;))return t[e]}();if(t&amp;&amp;t.previousSibling){var e,r,n,i,c=t.previousSibling,a=c.getAttribute(&quot;data-cfemail&quot;);if(a){for(e=&quot;&quot;,r=parseInt(a.substr(0,2),16),n=2;a.length-n;n+=2)i=parseInt(a.substr(n,2),16)^r,e+=String.fromCharCode(i);e=document.createTextNode(e),c.parentNode.replaceChild(e,c)}}}catch(u){}}();/* ]]&gt; */&lt;/script&gt;\nFormat settings, CABAC                   : Yes\nFormat settings, ReFrames                : 4 frames\nCodec ID                                 : avc1\nCodec ID/Info                            : Advanced Video Coding\nDuration                                 : 1h 8mn\nBit rate mode                            : Variable\nBit rate                                 : 900 Kbps\nWidth                                    : 716 pixels\nHeight                                   : 576 pixels\nDisplay aspect ratio                     : 16:9\nFrame rate mode                          : Constant\nFrame rate                               : 25.000 fps\nColor space                              : YUV\nChroma subsampling                       : 4:2:0\nBit depth                                : 8 bits\nScan type                                : Progressive\nBits/(Pixel*Frame)                       : 0.087\nStream size                              : 444 MiB (90%)\nWriting library                          : x264 core 120\nEncoding settings                        : cabac=1 / ref=1 / deblock=1:0:0\nEncoded date                             : UTC 2014-07-30 18:56:28\nTagged date                              : UTC 2014-07-30 19:13:30\nColor primaries                          : BT.601 NTSC\nTransfer characteristics                 : BT.709\nMatrix coefficients                      : BT.601\n\nAudio\nID                                       : 2\nFormat                                   : AAC\nFormat/Info                              : Advanced Audio Codec\nFormat profile                           : LC\nCodec ID                                 : 40\nDuration                                 : 1h 8mn\nBit rate mode                            : Variable\nBit rate                                 : 96.0 Kbps\nMaximum bit rate                         : 167 Kbps\nChannel(s)                               : 2 channels\nChannel positions                        : Front: L R\nSampling rate                            : 48.0 KHz\nCompression mode                         : Lossy\nDelay relative to video                  : 80ms\nStream size                              : 47.2 MiB (10%)\nLanguage                                 : English\nEncoded date                             : UTC 2014-07-30 18:56:28\nTagged date                              : UTC 2014-07-30 19:13:28","torrent":{"xt":"urn:btih:1c583e664a171c9b1d9e1e710fe1fba569078507","amp;dn":"Secret+Smile+S01","amp;tr":["udp%3A%2F%2Ftracker.openbittorrent.com%3A80","udp%3A%2F%2Fopen.demonii.com%3A1337","udp%3A%2F%2Ftracker.coppersurfer.tk%3A6969","udp%3A%2F%2Fexodus.desync.com%3A6969"],"infoHash":"1c583e664a171c9b1d9e1e710fe1fba569078507","infoHashBuffer":{"type":"Buffer","data":[28,88,62,102,74,23,28,155,29,158,30,113,15,225,251,165,105,7,133,7]},"announce":[],"urlList":[]}}